<svg width="32" height="32" viewBox="0 0 32 32" fill="none" xmlns="http://www.w3.org/2000/svg">
<path d="M24.5 0H7.5C3.35786 0 0 3.35786 0 7.5V24.5C0 28.6421 3.35786 32 7.5 32H24.5C28.6421 32 32 28.6421 32 24.5V7.5C32 3.35786 28.6421 0 24.5 0Z" fill="#5865F2"/>
<mask id="mask0_584_2447" style="mask-type:luminance" maskUnits="userSpaceOnUse" x="3" y="6" width="26" height="20">
<path d="M3.5 6.375H28.5V25.7412H3.5V6.375Z" fill="white"/>
</mask>
<g mask="url(#mask0_584_2447)">
<path d="M24.6634 8.09965C23.0426 7.35574 21.3321 6.82519 19.5748 6.52128C19.5588 6.51836 19.5424 6.52054 19.5277 6.52749C19.513 6.53444 19.5009 6.54582 19.493 6.56003C19.2733 6.95078 19.0298 7.46078 18.8594 7.86153C16.9378 7.57378 15.0262 7.57378 13.144 7.86153C12.9735 7.45178 12.7213 6.95078 12.5005 6.56003C12.4924 6.54605 12.4802 6.53487 12.4656 6.52795C12.451 6.52103 12.4346 6.51871 12.4187 6.52128C10.6612 6.8245 8.95063 7.35508 7.33005 8.09965C7.31625 8.10566 7.30458 8.11568 7.29655 8.12841C4.05555 12.9704 3.1678 17.6934 3.6033 22.3579C3.60595 22.3809 3.61764 22.402 3.6358 22.4164C5.77405 23.9868 7.84542 24.9402 9.8783 25.572C9.89411 25.5767 9.91098 25.5765 9.92665 25.5713C9.94233 25.5662 9.95607 25.5564 9.96605 25.5433C10.4469 24.8865 10.8755 24.1942 11.2432 23.466C11.2482 23.4561 11.2511 23.4451 11.2517 23.434C11.2522 23.4228 11.2503 23.4116 11.2462 23.4012C11.2421 23.3908 11.2359 23.3814 11.2279 23.3736C11.2199 23.3658 11.2103 23.3597 11.1998 23.3559C10.5198 23.0979 9.87242 22.7835 9.24967 22.4264C9.23833 22.4197 9.22881 22.4104 9.22194 22.3991C9.21507 22.3879 9.21107 22.3751 9.2103 22.362C9.20952 22.3489 9.21198 22.3357 9.21748 22.3238C9.22297 22.3118 9.23132 22.3014 9.2418 22.2934C9.37318 22.1952 9.5023 22.094 9.62905 21.9899C9.64016 21.9808 9.6536 21.9749 9.66786 21.9729C9.68212 21.971 9.69665 21.9731 9.7098 21.9789C13.8013 23.8469 18.2307 23.8469 22.2738 21.9789C22.287 21.9727 22.3017 21.9703 22.3162 21.9721C22.3307 21.9739 22.3444 21.9797 22.3557 21.9889C22.4826 22.0936 22.612 22.1951 22.7439 22.2934C22.7544 22.3013 22.7629 22.3117 22.7684 22.3236C22.774 22.3355 22.7766 22.3486 22.7759 22.3617C22.7752 22.3749 22.7713 22.3876 22.7645 22.3989C22.7578 22.4102 22.7483 22.4196 22.737 22.4264C22.114 22.7902 21.4613 23.1008 20.7859 23.3549C20.7755 23.3589 20.766 23.3651 20.7581 23.3731C20.7501 23.381 20.744 23.3906 20.74 23.401C20.736 23.4115 20.7342 23.4227 20.7349 23.4339C20.7355 23.4451 20.7384 23.4561 20.7435 23.466C21.1175 24.1884 21.544 24.8823 22.0195 25.5423C22.0293 25.5557 22.043 25.5658 22.0587 25.5712C22.0744 25.5765 22.0914 25.5768 22.1073 25.572C24.15 24.9402 26.2214 23.9868 28.3598 22.4164C28.3689 22.4096 28.3766 22.401 28.3822 22.3911C28.3878 22.3812 28.3912 22.3702 28.3923 22.3589C28.9135 16.9663 27.5192 12.2819 24.6959 8.12941C24.6891 8.11587 24.6775 8.1053 24.6634 8.09965ZM11.8542 19.5178C10.6223 19.5178 9.6073 18.3869 9.6073 16.998C9.6073 15.6092 10.6027 14.4783 11.8542 14.4783C13.1154 14.4783 14.1205 15.6192 14.1008 16.998C14.1008 18.3869 13.1055 19.5178 11.8542 19.5178ZM20.1612 19.5178C18.9293 19.5178 17.9144 18.3869 17.9144 16.998C17.9144 15.6092 18.9097 14.4783 20.1612 14.4783C21.4224 14.4783 22.4275 15.6192 22.4079 16.998C22.4079 18.3869 21.4224 19.5178 20.1612 19.5178Z" fill="white"/>
</g>
</svg>
