<svg width="33" height="20" viewBox="0 0 33 20" fill="none" xmlns="http://www.w3.org/2000/svg">
<path d="M6.68136 3.90677C12.0037 -1.30421 20.6328 -1.30421 25.9551 3.90677L26.5957 4.53392C26.8618 4.79447 26.8618 5.2169 26.5957 5.47745L24.4045 7.6228C24.2714 7.75308 24.0557 7.75308 23.9226 7.6228L23.0412 6.75977C19.3282 3.12446 13.3083 3.12446 9.59531 6.75977L8.65133 7.68401C8.51827 7.81428 8.30254 7.81428 8.16949 7.68401L5.9783 5.53865C5.71218 5.27811 5.71218 4.85567 5.9783 4.59512L6.68136 3.90677ZM30.4867 8.34359L32.4369 10.253C32.703 10.5135 32.703 10.9359 32.4369 11.1965L23.6435 19.8061C23.3773 20.0667 22.9459 20.0667 22.6798 19.8061C22.6798 19.8061 22.6798 19.8061 22.6798 19.8061L16.4387 13.6956C16.3722 13.6305 16.2644 13.6305 16.1978 13.6956C16.1978 13.6956 16.1978 13.6956 16.1978 13.6956L9.95693 19.8061C9.69082 20.0667 9.25936 20.0667 8.99324 19.8061C8.99324 19.8061 8.99324 19.8061 8.99324 19.8061L0.199586 11.1964C-0.0665288 10.9358 -0.0665288 10.5134 0.199586 10.2529L2.14975 8.34348C2.41586 8.08293 2.84732 8.08293 3.11344 8.34348L9.35455 14.4541C9.42108 14.5192 9.52895 14.5192 9.59548 14.4541C9.59548 14.4541 9.59548 14.4541 9.59548 14.4541L15.8363 8.34348C16.1024 8.08292 16.5338 8.08291 16.8 8.34346C16.8 8.34346 16.8 8.34346 16.8 8.34347L23.0411 14.4541C23.1076 14.5192 23.2155 14.5192 23.282 14.4541L29.523 8.34359C29.7891 8.08304 30.2206 8.08304 30.4867 8.34359Z" fill="#3B99FC"/>
</svg>
