<svg width="32" height="32" viewBox="0 0 32 32" fill="none" xmlns="http://www.w3.org/2000/svg">
<path d="M4.57143 0.000427246C2.05 0.000427246 0 2.05043 0 4.57186V27.429C0 29.9504 2.05 32.0004 4.57143 32.0004H27.4286C29.95 32.0004 32 29.9504 32 27.429V4.57186C32 2.05043 29.95 0.000427246 27.4286 0.000427246H4.57143ZM25.7929 6.00043L18.3786 14.4719L27.1 26.0004H20.2714L14.9286 19.0076L8.80714 26.0004H5.41429L13.3429 16.9361L4.97857 6.00043H11.9786L16.8143 12.3933L22.4 6.00043H25.7929ZM23.0929 23.9719L10.9571 7.92186H8.93571L21.2071 23.9719H23.0857H23.0929Z" fill="#686868"/>
</svg>
